# xmcd CD database file
#
# Track frame offsets:
#        150
#        8997
#        23304
#        43490
#        55947
#        68097
#        80180
#        99356
#        129824
#        151050
#        164844
#
# Disc length: 2429 seconds
#
# Revision: 0
# Processed by: cddbd v1.5.2PL0 Copyright (c) Steve Scherf et al.
# Submitted via: CUERipper 2.1.2a
#
DISCID=85097b0b
DTITLE=Ελευθερία Αρβανιτάκη - Live από το Γυάλινο Μουσικό Θέατρο
DYEAR=2002
DGENRE=Έντεχνο
TTITLE0=Όμορφη μου αγάπη
TTITLE1=Τέλος (Όλα αρχίζουν εδώ)
TTITLE2=Να με θυμάσαι
TTITLE3=Θα κλείσω τα μάτια
TTITLE4=Σταλιά σταλιά
TTITLE5=Θέλω κοντά σου να μείνω
TTITLE6=Το παράπονο
TTITLE7=Παράπονο - η ξενιτιά
TTITLE8=Έφυγες νωρίς
TTITLE9=Πες μου μια λέξη
TTITLE10=Το μηδέν
EXTD=
EXTT0=
EXTT1=
EXTT2=
EXTT3=
EXTT4=
EXTT5=
EXTT6=
EXTT7=
EXTT8=
EXTT9=
EXTT10=
PLAYORDER=
